<?xml version="1.0" encoding="UTF-8"?>
<!-- Generator: visioncortex VTracer 0.6.5 -->
<svg version="1.1" xmlns="http://www.w3.org/2000/svg" width="551" height="602">
<path d="M0 0 C181.83 0 363.66 0 551 0 C551 198.66 551 397.32 551 602 C369.17 602 187.34 602 0 602 C0 403.34 0 204.68 0 0 Z " fill="#94A6AE" transform="translate(0,0)"/>
<path d="M0 0 C181.83 0 363.66 0 551 0 C551 198.66 551 397.32 551 602 C369.17 602 187.34 602 0 602 C0 403.34 0 204.68 0 0 Z M247 17 C247 20.63 247 24.26 247 28 C237.1 28 227.2 28 217 28 C217 30.97 217 33.94 217 37 C213.7 37 210.4 37 207 37 C207 40.3 207 43.6 207 47 C203.7 47 200.4 47 197 47 C197 50.3 197 53.6 197 57 C193.7 57 190.4 57 187 57 C187 60.63 187 64.26 187 68 C183.7 68 180.4 68 177 68 C177 74.27 177 80.54 177 87 C173.7 87 170.4 87 167 87 C167 93.6 167 100.2 167 107 C163.7 107 160.4 107 157 107 C157 120.2 157 133.4 157 147 C160.3 147 163.6 147 167 147 C167 150.63 167 154.26 167 158 C170.3 158 173.6 158 177 158 C177 160.97 177 163.94 177 167 C190.2 167 203.4 167 217 167 C217 163.7 217 160.4 217 157 C220.3 157 223.6 157 227 157 C227 140.5 227 124 227 107 C230.3 107 233.6 107 237 107 C237 103.7 237 100.4 237 97 C240.3 97 243.6 97 247 97 C247 94.03 247 91.06 247 88 C253.6 88 260.2 88 267 88 C267 84.37 267 80.74 267 77 C276.9 77 286.8 77 297 77 C297 80.3 297 83.6 297 87 C303.6 87 310.2 87 317 87 C317 93.6 317 100.2 317 107 C320.3 107 323.6 107 327 107 C327 136.7 327 166.4 327 197 C251.1 197 175.2 197 97 197 C97 200.3 97 203.6 97 207 C87.1 207 77.2 207 67 207 C67 210.3 67 213.6 67 217 C60.4 217 53.8 217 47 217 C47 220.63 47 224.26 47 228 C43.7 228 40.4 228 37 228 C37 231.3 37 234.6 37 238 C33.7 238 30.4 238 27 238 C27 244.27 27 250.54 27 257 C23.7 257 20.4 257 17 257 C17 290 17 323 17 357 C13.7 357 10.4 357 7 357 C7 376.8 7 396.6 7 417 C10.3 417 13.6 417 17 417 C17 427.23 17 437.46 17 448 C20.3 448 23.6 448 27 448 C27 467.8 27 487.6 27 508 C30.3 508 33.6 508 37 508 C37 514.6 37 521.2 37 528 C40.3 528 43.6 528 47 528 C47 531.3 47 534.6 47 538 C50.3 538 53.6 538 57 538 C57 541.3 57 544.6 57 548 C60.3 548 63.6 548 67 548 C67 551.3 67 554.6 67 558 C70.3 558 73.6 558 77 558 C77 560.97 77 563.94 77 567 C85.55 568.05 94.02 568.12 102.62 568.06 C104.02 568.06 105.42 568.05 106.82 568.05 C110.22 568.04 113.61 568.02 117 568 C117 571.3 117 574.6 117 578 C222.6 578 328.2 578 437 578 C437 574.37 437 570.74 437 567 C446.9 567 456.8 567 467 567 C467 564.03 467 561.06 467 558 C473.6 558 480.2 558 487 558 C487 554.7 487 551.4 487 548 C488.44 548.02 489.89 548.04 491.38 548.06 C496.65 548.07 501.77 547.6 507 547 C507 540.73 507 534.46 507 528 C510.3 528 513.6 528 517 528 C517 521.4 517 514.8 517 508 C520.3 508 523.6 508 527 508 C527 488.2 527 468.4 527 448 C530.3 448 533.6 448 537 448 C537 384.97 537 321.94 537 257 C533.7 257 530.4 257 527 257 C527 253.7 527 250.4 527 247 C523.7 247 520.4 247 517 247 C517 240.73 517 234.46 517 228 C513.7 228 510.4 228 507 228 C507 224.37 507 220.74 507 217 C500.4 217 493.8 217 487 217 C487 213.7 487 210.4 487 207 C480.4 207 473.8 207 467 207 C467 203.7 467 200.4 467 197 C470.3 197 473.6 197 477 197 C477 190.4 477 183.8 477 177 C473.7 177 470.4 177 467 177 C467 170.4 467 163.8 467 157 C463.7 157 460.4 157 457 157 C457 134.23 457 111.46 457 88 C450.4 88 443.8 88 437 88 C437 91.3 437 94.6 437 98 C433.7 98 430.4 98 427 98 C427 101.3 427 104.6 427 108 C430.3 108 433.6 108 437 108 C437 121.2 437 134.4 437 148 C423.8 148 410.6 148 397 148 C397 131.17 397 114.34 397 97 C393.7 97 390.4 97 387 97 C387 90.73 387 84.46 387 78 C383.7 78 380.4 78 377 78 C377 71.07 377 64.14 377 57 C373.7 57 370.4 57 367 57 C367 53.7 367 50.4 367 47 C363.7 47 360.4 47 357 47 C357 43.7 357 40.4 357 37 C350.4 37 343.8 37 337 37 C337 33.7 337 30.4 337 27 C330.4 27 323.8 27 317 27 C317 23.7 317 20.4 317 17 C293.9 17 270.8 17 247 17 Z " fill="#F6F7F3" transform="translate(0,0)"/>
<path d="M0 0 C23.1 0 46.2 0 70 0 C70 3.3 70 6.6 70 10 C76.6 10 83.2 10 90 10 C90 13.3 90 16.6 90 20 C96.6 20 103.2 20 110 20 C110 23.3 110 26.6 110 30 C113.3 30 116.6 30 120 30 C120 33.3 120 36.6 120 40 C123.3 40 126.6 40 130 40 C130 46.93 130 53.86 130 61 C133.3 61 136.6 61 140 61 C140 67.27 140 73.54 140 80 C143.3 80 146.6 80 150 80 C150 96.83 150 113.66 150 131 C163.2 131 176.4 131 190 131 C190 117.8 190 104.6 190 91 C186.7 91 183.4 91 180 91 C180 87.7 180 84.4 180 81 C183.3 81 186.6 81 190 81 C190 77.7 190 74.4 190 71 C196.6 71 203.2 71 210 71 C210 93.77 210 116.54 210 140 C213.3 140 216.6 140 220 140 C220 146.6 220 153.2 220 160 C223.3 160 226.6 160 230 160 C230 166.6 230 173.2 230 180 C226.7 180 223.4 180 220 180 C220 183.3 220 186.6 220 190 C226.6 190 233.2 190 240 190 C240 193.3 240 196.6 240 200 C246.6 200 253.2 200 260 200 C260 203.63 260 207.26 260 211 C263.3 211 266.6 211 270 211 C270 217.27 270 223.54 270 230 C273.3 230 276.6 230 280 230 C280 233.3 280 236.6 280 240 C283.3 240 286.6 240 290 240 C290 303.03 290 366.06 290 431 C286.7 431 283.4 431 280 431 C280 450.8 280 470.6 280 491 C276.7 491 273.4 491 270 491 C270 497.6 270 504.2 270 511 C266.7 511 263.4 511 260 511 C260 517.27 260 523.54 260 530 C253.27 530.77 246.77 531.1 240 531 C240 534.3 240 537.6 240 541 C233.4 541 226.8 541 220 541 C220 543.97 220 546.94 220 550 C210.1 550 200.2 550 190 550 C190 553.63 190 557.26 190 561 C84.4 561 -21.2 561 -130 561 C-130 557.7 -130 554.4 -130 551 C-130.86 551.01 -131.71 551.01 -132.6 551.02 C-135.82 551.03 -139.04 551.05 -142.27 551.05 C-143.65 551.06 -145.04 551.07 -146.43 551.08 C-154.35 551.12 -162.13 550.97 -170 550 C-170 547.03 -170 544.06 -170 541 C-173.3 541 -176.6 541 -180 541 C-180 537.7 -180 534.4 -180 531 C-183.3 531 -186.6 531 -190 531 C-190 527.7 -190 524.4 -190 521 C-193.3 521 -196.6 521 -200 521 C-200 517.7 -200 514.4 -200 511 C-203.3 511 -206.6 511 -210 511 C-210 504.4 -210 497.8 -210 491 C-213.3 491 -216.6 491 -220 491 C-220 471.2 -220 451.4 -220 431 C-223.3 431 -226.6 431 -230 431 C-230 420.77 -230 410.54 -230 400 C-233.3 400 -236.6 400 -240 400 C-240 380.2 -240 360.4 -240 340 C-236.7 340 -233.4 340 -230 340 C-230 307 -230 274 -230 240 C-226.7 240 -223.4 240 -220 240 C-220 233.73 -220 227.46 -220 221 C-216.7 221 -213.4 221 -210 221 C-210 217.7 -210 214.4 -210 211 C-206.7 211 -203.4 211 -200 211 C-200 207.37 -200 203.74 -200 200 C-193.4 200 -186.8 200 -180 200 C-180 196.7 -180 193.4 -180 190 C-170.1 190 -160.2 190 -150 190 C-150 186.7 -150 183.4 -150 180 C-74.1 180 1.8 180 80 180 C80 150.3 80 120.6 80 90 C76.7 90 73.4 90 70 90 C70 83.4 70 76.8 70 70 C63.4 70 56.8 70 50 70 C50 66.7 50 63.4 50 60 C40.1 60 30.2 60 20 60 C20 63.63 20 67.26 20 71 C13.4 71 6.8 71 0 71 C0 73.97 0 76.94 0 80 C-3.3 80 -6.6 80 -10 80 C-10 83.3 -10 86.6 -10 90 C-13.3 90 -16.6 90 -20 90 C-20 106.5 -20 123 -20 140 C-23.3 140 -26.6 140 -30 140 C-30 143.3 -30 146.6 -30 150 C-43.2 150 -56.4 150 -70 150 C-70 147.03 -70 144.06 -70 141 C-73.3 141 -76.6 141 -80 141 C-80 137.37 -80 133.74 -80 130 C-83.3 130 -86.6 130 -90 130 C-90 116.8 -90 103.6 -90 90 C-86.7 90 -83.4 90 -80 90 C-80 83.4 -80 76.8 -80 70 C-76.7 70 -73.4 70 -70 70 C-70 63.73 -70 57.46 -70 51 C-66.7 51 -63.4 51 -60 51 C-60 47.37 -60 43.74 -60 40 C-56.7 40 -53.4 40 -50 40 C-50 36.7 -50 33.4 -50 30 C-46.7 30 -43.4 30 -40 30 C-40 26.7 -40 23.4 -40 20 C-36.7 20 -33.4 20 -30 20 C-30 17.03 -30 14.06 -30 11 C-20.1 11 -10.2 11 0 11 C0 7.37 0 3.74 0 0 Z M-160 201 C-160 204.3 -160 207.6 -160 211 C-169.9 211 -179.8 211 -190 211 C-190 214.3 -190 217.6 -190 221 C-193.3 221 -196.6 221 -200 221 C-200 227.27 -200 233.54 -200 240 C-203.3 240 -206.6 240 -210 240 C-210 243.63 -210 247.26 -210 251 C-213.3 251 -216.6 251 -220 251 C-220 303.47 -220 355.94 -220 410 C-216.7 410 -213.4 410 -210 410 C-210 416.93 -210 423.86 -210 431 C-206.7 431 -203.4 431 -200 431 C-200 437.27 -200 443.54 -200 450 C-196.7 450 -193.4 450 -190 450 C-190 453.3 -190 456.6 -190 460 C-183.4 460 -176.8 460 -170 460 C-170 463.3 -170 466.6 -170 470 C-160.1 470 -150.2 470 -140 470 C-140 473.3 -140 476.6 -140 480 C-27.8 480 84.4 480 200 480 C200 477.03 200 474.06 200 471 C206.6 471 213.2 471 220 471 C220 467.7 220 464.4 220 461 C221.44 461.02 222.89 461.04 224.38 461.06 C229.65 461.07 234.77 460.6 240 460 C240 457.03 240 454.06 240 451 C241.44 451.02 242.89 451.04 244.38 451.06 C249.65 451.07 254.77 450.6 260 450 C260 443.4 260 436.8 260 430 C263.3 430 266.6 430 270 430 C270 367.63 270 305.26 270 241 C266.7 241 263.4 241 260 241 C260 237.7 260 234.4 260 231 C256.7 231 253.4 231 250 231 C250 227.7 250 224.4 250 221 C246.7 221 243.4 221 240 221 C240 217.7 240 214.4 240 211 C233.27 210.23 226.77 209.9 220 210 C220 207.03 220 204.06 220 201 C200.2 201 180.4 201 160 201 C160 203.97 160 206.94 160 210 C156.7 210 153.4 210 150 210 C150 213.63 150 217.26 150 221 C148.54 220.98 147.07 220.96 145.56 220.94 C144.04 220.92 142.52 220.93 141 221 C139.5 222.5 139.67 223.99 139.44 226.06 C139.29 227.36 139.15 228.66 139 230 C136.03 230.33 133.06 230.66 130 231 C130 227.37 130 223.74 130 220 C113.5 220 97 220 80 220 C80 213.73 80 207.46 80 201 C0.8 201 -78.4 201 -160 201 Z " fill="#3E5865" transform="translate(247,17)"/>
<path d="M0 0 C108.9 0 217.8 0 330 0 C330 2.97 330 5.94 330 9 C333.3 9 336.6 9 340 9 C340 12.63 340 16.26 340 20 C343.3 20 346.6 20 350 20 C350 26.6 350 33.2 350 40 C353.3 40 356.6 40 360 40 C360 59.8 360 79.6 360 100 C353.4 100 346.8 100 340 100 C340 103.3 340 106.6 340 110 C227.8 110 115.6 110 0 110 C0 106.37 0 102.74 0 99 C-3.3 99 -6.6 99 -10 99 C-10 69.63 -10 40.26 -10 10 C-6.7 10 -3.4 10 0 10 C0 6.7 0 3.4 0 0 Z " fill="#CBD6D9" transform="translate(107,338)"/>
<path d="M0 0 C23.1 0 46.2 0 70 0 C70 3.3 70 6.6 70 10 C76.6 10 83.2 10 90 10 C90 13.3 90 16.6 90 20 C96.6 20 103.2 20 110 20 C110 23.3 110 26.6 110 30 C113.3 30 116.6 30 120 30 C120 33.3 120 36.6 120 40 C123.3 40 126.6 40 130 40 C130 46.93 130 53.86 130 61 C133.3 61 136.6 61 140 61 C140 67.27 140 73.54 140 80 C143.3 80 146.6 80 150 80 C150 96.83 150 113.66 150 131 C163.2 131 176.4 131 190 131 C190 117.8 190 104.6 190 91 C186.7 91 183.4 91 180 91 C180 87.7 180 84.4 180 81 C183.3 81 186.6 81 190 81 C190 77.7 190 74.4 190 71 C196.6 71 203.2 71 210 71 C210 93.77 210 116.54 210 140 C213.3 140 216.6 140 220 140 C220 146.6 220 153.2 220 160 C223.3 160 226.6 160 230 160 C230 166.6 230 173.2 230 180 C226.7 180 223.4 180 220 180 C220 183.63 220 187.26 220 191 C216.7 191 213.4 191 210 191 C210 193.97 210 196.94 210 200 C193.5 200 177 200 160 200 C160 203.3 160 206.6 160 210 C156.7 210 153.4 210 150 210 C150 213.63 150 217.26 150 221 C147.03 221.33 144.06 221.66 141 222 C140.86 223.3 140.71 224.6 140.56 225.94 C140.12 229.88 140.12 229.88 139 231 C136 231.14 133.01 231.04 130 231 C130 227.37 130 223.74 130 220 C113.5 220 97 220 80 220 C80 213.4 80 206.8 80 200 C-2.5 200 -85 200 -170 200 C-170 203.3 -170 206.6 -170 210 C-176.6 210 -183.2 210 -190 210 C-190 202 -190 202 -189 201 C-186 200.86 -183.01 200.96 -180 201 C-180 197.37 -180 193.74 -180 190 C-170.1 190 -160.2 190 -150 190 C-150 186.7 -150 183.4 -150 180 C-74.1 180 1.8 180 80 180 C80 150.3 80 120.6 80 90 C76.7 90 73.4 90 70 90 C70 83.4 70 76.8 70 70 C63.4 70 56.8 70 50 70 C50 66.7 50 63.4 50 60 C40.1 60 30.2 60 20 60 C20 63.63 20 67.26 20 71 C13.4 71 6.8 71 0 71 C0 73.97 0 76.94 0 80 C-3.3 80 -6.6 80 -10 80 C-10 83.3 -10 86.6 -10 90 C-13.3 90 -16.6 90 -20 90 C-20 106.5 -20 123 -20 140 C-23.3 140 -26.6 140 -30 140 C-30 143.3 -30 146.6 -30 150 C-43.2 150 -56.4 150 -70 150 C-70 147.03 -70 144.06 -70 141 C-73.3 141 -76.6 141 -80 141 C-80 137.37 -80 133.74 -80 130 C-83.3 130 -86.6 130 -90 130 C-90 116.8 -90 103.6 -90 90 C-86.7 90 -83.4 90 -80 90 C-80 83.4 -80 76.8 -80 70 C-76.7 70 -73.4 70 -70 70 C-70 63.73 -70 57.46 -70 51 C-66.7 51 -63.4 51 -60 51 C-60 47.37 -60 43.74 -60 40 C-56.7 40 -53.4 40 -50 40 C-50 36.7 -50 33.4 -50 30 C-46.7 30 -43.4 30 -40 30 C-40 26.7 -40 23.4 -40 20 C-36.7 20 -33.4 20 -30 20 C-30 17.03 -30 14.06 -30 11 C-20.1 11 -10.2 11 0 11 C0 7.37 0 3.74 0 0 Z " fill="#274353" transform="translate(247,17)"/>
<path d="M0 0 C79.2 0 158.4 0 240 0 C240 9.57 240 19.14 240 29 C167.4 29 94.8 29 20 29 C20 32.63 20 36.26 20 40 C13.4 40 6.8 40 0 40 C0 43.3 0 46.6 0 50 C-3.3 50 -6.6 50 -10 50 C-10 53.3 -10 56.6 -10 60 C-13.3 60 -16.6 60 -20 60 C-20 66.6 -20 73.2 -20 80 C-23.3 80 -26.6 80 -30 80 C-30 119.27 -30 158.54 -30 199 C-26.7 199 -23.4 199 -20 199 C-20 205.93 -20 212.86 -20 220 C-16.7 220 -13.4 220 -10 220 C-10 223.3 -10 226.6 -10 230 C-6.7 230 -3.4 230 0 230 C0 233.3 0 236.6 0 240 C6.6 240 13.2 240 20 240 C20 242.97 20 245.94 20 249 C132.2 249 244.4 249 360 249 C360 246.03 360 243.06 360 240 C366.6 240 373.2 240 380 240 C380 236.37 380 232.74 380 229 C383.3 229 386.6 229 390 229 C390 225.7 390 222.4 390 219 C393.3 219 396.6 219 400 219 C400 192.6 400 166.2 400 139 C403.3 139 406.6 139 410 139 C410 122.83 410 106.66 410 90 C406.7 90 403.4 90 400 90 C400 80.1 400 70.2 400 60 C396.7 60 393.4 60 390 60 C390 53.4 390 46.8 390 40 C386.7 40 383.4 40 380 40 C378.12 39.87 376.25 39.71 374.38 39.5 C372.93 39.33 371.49 39.17 370 39 C370 35.7 370 32.4 370 29 C350.2 29 330.4 29 310 29 C310 22.4 310 15.8 310 9 C313.3 9 316.6 9 320 9 C320 6.03 320 3.06 320 0 C339.8 0 359.6 0 380 0 C380 2.97 380 5.94 380 9 C381.44 8.98 382.89 8.96 384.38 8.94 C389.65 8.93 394.77 9.4 400 10 C400 13.3 400 16.6 400 20 C403.3 20 406.6 20 410 20 C410 23.3 410 26.6 410 30 C413.3 30 416.6 30 420 30 C420 33.3 420 36.6 420 40 C423.3 40 426.6 40 430 40 C430 102.37 430 164.74 430 229 C426.7 229 423.4 229 420 229 C420 235.6 420 242.2 420 249 C413.27 249.77 406.77 250.1 400 250 C400 252.97 400 255.94 400 259 C393.27 259.77 386.77 260.1 380 260 C380 263.3 380 266.6 380 270 C373.4 270 366.8 270 360 270 C360 272.97 360 275.94 360 279 C247.8 279 135.6 279 20 279 C20 275.7 20 272.4 20 269 C10.1 269 0.2 269 -10 269 C-10 265.7 -10 262.4 -10 259 C-16.6 259 -23.2 259 -30 259 C-30 255.7 -30 252.4 -30 249 C-33.3 249 -36.6 249 -40 249 C-40 242.73 -40 236.46 -40 230 C-43.3 230 -46.6 230 -50 230 C-50 223.07 -50 216.14 -50 209 C-53.3 209 -56.6 209 -60 209 C-60 156.53 -60 104.06 -60 50 C-56.7 50 -53.4 50 -50 50 C-50 46.37 -50 42.74 -50 39 C-46.7 39 -43.4 39 -40 39 C-40 32.73 -40 26.46 -40 20 C-36.7 20 -33.4 20 -30 20 C-30 16.7 -30 13.4 -30 10 C-20.1 10 -10.2 10 0 10 C0 6.7 0 3.4 0 0 Z " fill="#F5F6F4" transform="translate(87,218)"/>
<path d="M0 0 C6.93 0 13.86 0 21 0 C20.67 6.27 20.34 12.54 20 19 C10.1 19 0.2 19 -10 19 C-10 22.3 -10 25.6 -10 29 C-13.3 29 -16.6 29 -20 29 C-20 32.3 -20 35.6 -20 39 C-23.3 39 -26.6 39 -30 39 C-30 62.43 -30 85.86 -30 110 C-26.7 110 -23.4 110 -20 110 C-20 103.07 -20 96.14 -20 89 C-16.7 89 -13.4 89 -10 89 C-10 85.7 -10 82.4 -10 79 C-6.7 79 -3.4 79 0 79 C0 75.7 0 72.4 0 69 C112.2 69 224.4 69 340 69 C340 72.3 340 75.6 340 79 C343.3 79 346.6 79 350 79 C350 82.3 350 85.6 350 89 C353.3 89 356.6 89 360 89 C360 95.6 360 102.2 360 109 C363.3 109 366.6 109 370 109 C370 89.2 370 69.4 370 49 C366.7 49 363.4 49 360 49 C360 42.4 360 35.8 360 29 C356.7 29 353.4 29 350 29 C350 26.03 350 23.06 350 20 C349.41 20 349.41 20 346.44 20.02 C342.09 20.03 337.74 20.05 333.39 20.05 C331.51 20.06 329.62 20.07 327.74 20.08 C325.03 20.09 322.33 20.09 319.63 20.1 C318.78 20.1 317.93 20.11 317.06 20.11 C315.04 20.11 313.02 20.06 311 20 C310.67 19.67 310.34 19.34 310 19 C310 16.03 310 13.06 310 10 C303.4 10 296.8 10 290 10 C290 6.7 290 3.4 290 0 C306.5 0 323 0 340 0 C340 3.3 340 6.6 340 10 C349.9 10 359.8 10 370 10 C370 16.6 370 23.2 370 30 C373.3 30 376.6 30 380 30 C380 39.9 380 49.8 380 60 C383.3 60 386.6 60 390 60 C390 76.17 390 92.34 390 109 C386.7 109 383.4 109 380 109 C380 135.4 380 161.8 380 189 C376.7 189 373.4 189 370 189 C370 192.3 370 195.6 370 199 C366.7 199 363.4 199 360 199 C360 202.63 360 206.26 360 210 C353.4 210 346.8 210 340 210 C340 212.97 340 215.94 340 219 C227.8 219 115.6 219 0 219 C0 216.03 0 213.06 0 210 C-6.6 210 -13.2 210 -20 210 C-20 206.7 -20 203.4 -20 200 C-23.3 200 -26.6 200 -30 200 C-30 196.7 -30 193.4 -30 190 C-33.3 190 -36.6 190 -40 190 C-40 183.07 -40 176.14 -40 169 C-43.3 169 -46.6 169 -50 169 C-50 129.73 -50 90.46 -50 50 C-46.7 50 -43.4 50 -40 50 C-40 43.4 -40 36.8 -40 30 C-36.7 30 -33.4 30 -30 30 C-30 26.7 -30 23.4 -30 20 C-26.7 20 -23.4 20 -20 20 C-20 16.7 -20 13.4 -20 10 C-13.4 10 -6.8 10 0 10 C0 6.7 0 3.4 0 0 Z M0 90 C0 93.3 0 96.6 0 100 C-3.3 100 -6.6 100 -10 100 C-10 129.37 -10 158.74 -10 189 C-6.7 189 -3.4 189 0 189 C0 192.63 0 196.26 0 200 C112.2 200 224.4 200 340 200 C340 196.7 340 193.4 340 190 C346.6 190 353.2 190 360 190 C360 170.2 360 150.4 360 130 C356.7 130 353.4 130 350 130 C350 123.4 350 116.8 350 110 C346.7 110 343.4 110 340 110 C340 106.37 340 102.74 340 99 C336.7 99 333.4 99 330 99 C330 96.03 330 93.06 330 90 C221.1 90 112.2 90 0 90 Z " fill="#2E4A59" transform="translate(107,248)"/>
<path d="M0 0 C3.3 0 6.6 0 10 0 C10 3.3 10 6.6 10 10 C11.32 10 12.64 10 14 10 C14 116.92 14 223.84 14 334 C-94.92 334.24 -94.92 334.24 -140.34 334.29 C-150.73 334.3 -161.13 334.32 -171.52 334.33 C-172.17 334.33 -172.17 334.33 -175.47 334.33 C-196.52 334.36 -217.57 334.41 -238.62 334.46 C-260.22 334.52 -281.81 334.55 -303.41 334.56 C-316.74 334.57 -330.07 334.6 -343.4 334.65 C-352.53 334.68 -361.67 334.69 -370.8 334.68 C-376.08 334.68 -381.35 334.68 -386.63 334.72 C-391.45 334.74 -396.28 334.75 -401.11 334.73 C-402.85 334.72 -404.6 334.73 -406.35 334.75 C-408.72 334.77 -411.09 334.76 -413.47 334.74 C-414.79 334.74 -416.11 334.74 -417.47 334.75 C-421.62 333.87 -423 332.54 -425.66 329.38 C-427 328 -427 328 -430 327 C-430 324.69 -430 322.38 -430 320 C-433.3 320 -436.6 320 -440 320 C-440 316.7 -440 313.4 -440 310 C-443.3 310 -446.6 310 -450 310 C-450 306.7 -450 303.4 -450 300 C-440.1 300 -430.2 300 -420 300 C-420 303.3 -420 306.6 -420 310 C-314.4 310 -208.8 310 -100 310 C-100 306.37 -100 302.74 -100 299 C-90.1 299 -80.2 299 -70 299 C-70 296.03 -70 293.06 -70 290 C-63.4 290 -56.8 290 -50 290 C-50 286.7 -50 283.4 -50 280 C-43.27 279.23 -36.77 278.9 -30 279 C-30 272.73 -30 266.46 -30 260 C-26.7 260 -23.4 260 -20 260 C-20 253.4 -20 246.8 -20 240 C-16.7 240 -13.4 240 -10 240 C-10 220.2 -10 200.4 -10 180 C-6.7 180 -3.4 180 0 180 C0 120.6 0 61.2 0 0 Z " fill="#CCD4D7" transform="translate(537,268)"/>
<path d="M0 0 C33 0 66 0 100 0 C100 10.23 100 20.46 100 31 C103.3 31 106.6 31 110 31 C110 34.3 110 37.6 110 41 C113.3 41 116.6 41 120 41 C120 44.3 120 47.6 120 51 C129.9 51 139.8 51 150 51 C150 47.37 150 43.74 150 40 C156.6 40 163.2 40 170 40 C170 33.4 170 26.8 170 20 C173.3 20 176.6 20 180 20 C180 13.4 180 6.8 180 0 C229.5 0 279 0 330 0 C330 16.83 330 33.66 330 51 C323.4 51 316.8 51 310 51 C310 53.97 310 56.94 310 60 C207.7 60 105.4 60 0 60 C0 40.2 0 20.4 0 0 Z " fill="#F6F8F5" transform="translate(137,387)"/>
<path d="M0 0 C26.4 0 52.8 0 80 0 C80 3.3 80 6.6 80 10 C86.6 10 93.2 10 100 10 C100 13.3 100 16.6 100 20 C103.3 20 106.6 20 110 20 C110 22.97 110 25.94 110 29 C113.3 29 116.6 29 120 29 C120 32.3 120 35.6 120 39 C123.3 39 126.6 39 130 39 C130 42.3 130 45.6 130 49 C133.3 49 136.6 49 140 49 C140 65.83 140 82.66 140 100 C130.1 100 120.2 100 110 100 C110 89.77 110 79.54 110 69 C106.7 69 103.4 69 100 69 C100 62.73 100 56.46 100 50 C96.7 50 93.4 50 90 50 C90 46.7 90 43.4 90 40 C86.7 40 83.4 40 80 40 C80 36.37 80 32.74 80 29 C56.9 29 33.8 29 10 29 C10 32.63 10 36.26 10 40 C6.7 40 3.4 40 0 40 C0 43.3 0 46.6 0 50 C-3.3 50 -6.6 50 -10 50 C-10 52.97 -10 55.94 -10 59 C-13.3 59 -16.6 59 -20 59 C-20 62.3 -20 65.6 -20 69 C-29.9 69 -39.8 69 -50 69 C-50 59.1 -50 49.2 -50 39 C-46.7 39 -43.4 39 -40 39 C-40 36.03 -40 33.06 -40 30 C-36.7 30 -33.4 30 -30 30 C-30 26.7 -30 23.4 -30 20 C-26.7 20 -23.4 20 -20 20 C-20 16.7 -20 13.4 -20 10 C-13.4 10 -6.8 10 0 10 C0 6.7 0 3.4 0 0 Z " fill="#D5DDE0" transform="translate(237,38)"/>
<path d="M0 0 C19.8 0 39.6 0 60 0 C60 2.97 60 5.94 60 9 C61.44 8.98 62.89 8.96 64.38 8.94 C69.65 8.93 74.77 9.4 80 10 C80 13.3 80 16.6 80 20 C83.3 20 86.6 20 90 20 C90 23.3 90 26.6 90 30 C93.3 30 96.6 30 100 30 C100 33.3 100 36.6 100 40 C103.3 40 106.6 40 110 40 C110 79.27 110 118.54 110 159 C106.7 159 103.4 159 100 159 C100 156.03 100 153.06 100 150 C96.7 150.17 96.7 150.17 80 151 C80 147.04 80 143.08 80 139 C83.3 139 86.6 139 90 139 C90 122.83 90 106.66 90 90 C86.7 90 83.4 90 80 90 C80 80.1 80 70.2 80 60 C76.7 60 73.4 60 70 60 C70 53.4 70 46.8 70 40 C66.7 40 63.4 40 60 40 C58.12 39.87 56.25 39.71 54.38 39.5 C52.93 39.33 51.49 39.17 50 39 C50 35.7 50 32.4 50 29 C30.2 29 10.4 29 -10 29 C-10 22.4 -10 15.8 -10 9 C-6.7 9 -3.4 9 0 9 C0 6.03 0 3.06 0 0 Z " fill="#C9D4D8" transform="translate(407,218)"/>
<path d="M0 0 C13.2 0 26.4 0 40 0 C40 3.3 40 6.6 40 10 C43.3 10 46.6 10 50 10 C50 12.97 50 15.94 50 19 C53.3 19 56.6 19 60 19 C60 28.9 60 38.8 60 49 C56.7 49 53.4 49 50 49 C50 55.6 50 62.2 50 69 C43.4 69 36.8 69 30 69 C30 72.63 30 76.26 30 80 C20.1 80 10.2 80 0 80 C0 76.7 0 73.4 0 70 C-3.3 70 -6.6 70 -10 70 C-10 66.7 -10 63.4 -10 60 C-13.3 60 -16.6 60 -20 60 C-20 46.47 -20 32.94 -20 19 C-16.7 19 -13.4 19 -10 19 C-10 15.7 -10 12.4 -10 9 C-6.7 9 -3.4 9 0 9 C0 6.03 0 3.06 0 0 Z " fill="#2F4B59" transform="translate(257,358)"/>
<path d="M0 0 C13.2 0 26.4 0 40 0 C40 3.63 40 7.26 40 11 C46.6 11 53.2 11 60 11 C60 23.87 60 36.74 60 50 C56.7 50 53.4 50 50 50 C50 47.03 50 44.06 50 41 C46.7 41 43.4 41 40 41 C40 50.57 40 60.14 40 70 C26.8 70 13.6 70 0 70 C0 46.9 0 23.8 0 0 Z " fill="#D7DEE0" transform="translate(347,157)"/>
<path d="M0 0 C118.8 0 237.6 0 360 0 C360 0.33 360 0.66 360 1 C353.4 1 346.8 1 340 1 C340 3.97 340 6.94 340 10 C227.8 10 115.6 10 0 10 C0 6.7 0 3.4 0 0 Z " fill="#BEC7CC" transform="translate(107,487)"/>
<path d="M0 0 C9.9 0 19.8 0 30 0 C30 2.97 30 5.94 30 9 C36.6 9 43.2 9 50 9 C50 6.03 50 3.06 50 0 C139.1 0 228.2 0 320 0 C320 3.3 320 6.6 320 10 C214.4 10 108.8 10 0 10 C0 6.7 0 3.4 0 0 Z " fill="#A2B0B6" transform="translate(117,568)"/>
<path d="M0 0 C59.4 0 118.8 0 180 0 C180 3.3 180 6.6 180 10 C189.9 10 199.8 10 210 10 C210 13.3 210 16.6 210 20 C206.7 20 203.4 20 200 20 C200 17.03 200 14.06 200 11 C91.1 11 -17.8 11 -130 11 C-130 10.67 -130 10.34 -130 10 C-87.1 10 -44.2 10 0 10 C0 6.7 0 3.4 0 0 Z " fill="#41555E" transform="translate(237,327)"/>
<path d="M0 0 C16.5 0 33 0 50 0 C50 2.97 50 5.94 50 9 C40.1 9 30.2 9 20 9 C20 12.3 20 15.6 20 19 C10.1 19 0.2 19 -10 19 C-10 22.3 -10 25.6 -10 29 C-13.3 29 -16.6 29 -20 29 C-20 32.3 -20 35.6 -20 39 C-23.3 39 -26.6 39 -30 39 C-30 45.6 -30 52.2 -30 59 C-33.3 59 -36.6 59 -40 59 C-40 62.3 -40 65.6 -40 69 C-43.3 69 -46.6 69 -50 69 C-50 59.1 -50 49.2 -50 39 C-46.7 39 -43.4 39 -40 39 C-40 36.03 -40 33.06 -40 30 C-36.7 30 -33.4 30 -30 30 C-30 26.7 -30 23.4 -30 20 C-26.7 20 -23.4 20 -20 20 C-20 16.7 -20 13.4 -20 10 C-13.4 10 -6.8 10 0 10 C0 6.7 0 3.4 0 0 Z " fill="#F7F8FA" transform="translate(237,38)"/>
<path d="M0 0 C19.8 0 39.6 0 60 0 C60 3.3 60 6.6 60 10 C66.6 10 73.2 10 80 10 C80 12.97 80 15.94 80 19 C47 19 14 19 -20 19 C-20 16.03 -20 13.06 -20 10 C-13.4 10 -6.8 10 0 10 C0 6.7 0 3.4 0 0 Z " fill="#264759" transform="translate(247,18)"/>
<path d="M0 0 C46.2 0 92.4 0 140 0 C140 2.97 140 5.94 140 9 C93.8 9 47.6 9 0 9 C0 6.03 0 3.06 0 0 Z " fill="#7E8B8F" transform="translate(297,568)"/>
<path d="M0 0 C19.8 0 39.6 0 60 0 C60 2.97 60 5.94 60 9 C109.5 9 159 9 210 9 C210 12.3 210 15.6 210 19 C206.7 19 203.4 19 200 19 C200 16.03 200 13.06 200 10 C91.1 10 -17.8 10 -130 10 C-130 9.67 -130 9.34 -130 9 C-87.1 9 -44.2 9 0 9 C0 6.03 0 3.06 0 0 Z " fill="#617784" transform="translate(237,328)"/>
<path d="M0 0 C23.1 0 46.2 0 70 0 C70 3.3 70 6.6 70 10 C76.6 10 83.2 10 90 10 C90 13.3 90 16.6 90 20 C96.6 20 103.2 20 110 20 C110 23.3 110 26.6 110 30 C113.3 30 116.6 30 120 30 C120 33.3 120 36.6 120 40 C123.3 40 126.6 40 130 40 C130 40.33 130 40.66 130 41 C123.4 41 116.8 41 110 41 C110 37.7 110 34.4 110 31 C106.7 31 103.4 31 100 31 C100 27.7 100 24.4 100 21 C93.4 21 86.8 21 80 21 C80 23.97 80 26.94 80 30 C83.3 30 86.6 30 90 30 C90 30.33 90 30.66 90 31 C83.4 31 76.8 31 70 31 C70 27.7 70 24.4 70 21 C43.6 21 17.2 21 -10 21 C-10 24.3 -10 27.6 -10 31 C-16.6 31 -23.2 31 -30 31 C-30 30.67 -30 30.34 -30 30 C-26.7 30 -23.4 30 -20 30 C-20 27.03 -20 24.06 -20 21 C-26.6 21 -33.2 21 -40 21 C-40 20.67 -40 20.34 -40 20 C-36.7 20 -33.4 20 -30 20 C-30 17.03 -30 14.06 -30 11 C-26.7 11 -23.4 11 -20 11 C-20 13.97 -20 16.94 -20 20 C13 20 46 20 80 20 C80 17.03 80 14.06 80 11 C73.4 11 66.8 11 60 11 C60 7.7 60 4.4 60 1 C40.2 1 20.4 1 0 1 C0 0.67 0 0.34 0 0 Z " fill="#5D707B" transform="translate(247,17)"/>
<path d="M0 0 C33 0 66 0 100 0 C100 2.97 100 5.94 100 9 C67 9 34 9 0 9 C0 6.03 0 3.06 0 0 Z " fill="#495B68" transform="translate(137,328)"/>
<path d="M0 0 C3.3 0 6.6 0 10 0 C10 3.3 10 6.6 10 10 C16.6 10 23.2 10 30 10 C30 13.3 30 16.6 30 20 C27.03 20.33 24.06 20.66 21 21 C20.67 23.64 20.34 26.28 20 29 C23.3 29 26.6 29 30 29 C30 32.63 30 36.26 30 40 C33.63 40 37.26 40 41 40 C40.67 42.97 40.34 45.94 40 49 C33.4 49 26.8 49 20 49 C20 45.7 20 42.4 20 39 C16.7 39 13.4 39 10 39 C10 32.4 10 25.8 10 19 C6.7 19 3.4 19 0 19 C0 12.73 0 6.46 0 0 Z " fill="#A6B6C0" transform="translate(47,488)"/>
<path d="M0 0 C6.6 0 13.2 0 20 0 C20 0.33 20 0.66 20 1 C18.52 1.16 18.52 1.16 11 2 C10.67 4.64 10.34 7.28 10 10 C16.6 10 23.2 10 30 10 C30 6.7 30 3.4 30 0 C112.5 0 195 0 280 0 C280 0.33 280 0.66 280 1 C200.8 1 121.6 1 40 1 C40 4.3 40 7.6 40 11 C30.1 11 20.2 11 10 11 C10 14.3 10 17.6 10 21 C6.7 21 3.4 21 0 21 C0 23.97 0 26.94 0 30 C-3.3 30 -6.6 30 -10 30 C-10 23.73 -10 17.46 -10 11 C-6.7 11 -3.4 11 0 11 C0 7.37 0 3.74 0 0 Z " fill="#32505F" transform="translate(47,217)"/>
<path d="M0 0 C6.6 0 13.2 0 20 0 C20 2.97 20 5.94 20 9 C23.3 9 26.6 9 30 9 C30 15.6 30 22.2 30 29 C20.1 29 10.2 29 0 29 C0 19.43 0 9.86 0 0 Z " fill="#A1B2BA" transform="translate(427,168)"/>
<path d="M0 0 C3.3 0 6.6 0 10 0 C10 3.3 10 6.6 10 10 C13.3 10 16.6 10 20 10 C20 26.83 20 43.66 20 61 C10.1 61 0.2 61 -10 61 C-10 60.67 -10 60.34 -10 60 C-3.4 60 3.2 60 10 60 C10 46.8 10 33.6 10 20 C6.7 20 3.4 20 0 20 C0 13.4 0 6.8 0 0 Z " fill="#AFBEC6" transform="translate(357,77)"/>
<path d="M0 0 C3.3 0 6.6 0 10 0 C10 22.77 10 45.54 10 69 C6.7 69 3.4 69 0 69 C0 46.23 0 23.46 0 0 Z " fill="#F8F9FA" transform="translate(347,158)"/>
<path d="M0 0 C3.3 0 6.6 0 10 0 C10 19.8 10 39.6 10 60 C6.7 60 3.4 60 0 60 C0 40.2 0 20.4 0 0 Z " fill="#99A2A5" transform="translate(7,357)"/>
<path d="M0 0 C19.8 0 39.6 0 60 0 C60 2.97 60 5.94 60 9 C40.2 9 20.4 9 0 9 C0 6.03 0 3.06 0 0 Z " fill="#88969D" transform="translate(237,568)"/>
<path d="M0 0 C19.8 0 39.6 0 60 0 C60 2.97 60 5.94 60 9 C40.2 9 20.4 9 0 9 C0 6.03 0 3.06 0 0 Z " fill="#8A9BA3" transform="translate(167,568)"/>
<path d="M0 0 C108.9 0 217.8 0 330 0 C330 0.33 330 0.66 330 1 C247.5 1 165 1 80 1 C80 3.97 80 6.94 80 10 C73.4 10 66.8 10 60 10 C60 7.03 60 4.06 60 1 C40.2 1 20.4 1 0 1 C0 0.67 0 0.34 0 0 Z " fill="#536973" transform="translate(87,567)"/>
<path d="M0 0 C3.3 0 6.6 0 10 0 C10 16.83 10 33.66 10 51 C6.7 51 3.4 51 0 51 C0 34.17 0 17.34 0 0 Z " fill="#78858D" transform="translate(87,377)"/>
<path d="M0 0 C16.5 0 33 0 50 0 C50 2.97 50 5.94 50 9 C33.5 9 17 9 0 9 C0 6.03 0 3.06 0 0 Z " fill="#737F83" transform="translate(387,568)"/>
<path d="M0 0 C13.2 0 26.4 0 40 0 C40 3.63 40 7.26 40 11 C26.8 11 13.6 11 0 11 C0 7.37 0 3.74 0 0 Z " fill="#A5B3B5" transform="translate(177,127)"/>
<path d="M0 0 C112.2 0 224.4 0 340 0 C340 3.3 340 6.6 340 10 C336.7 10 333.4 10 330 10 C330 7.03 330 4.06 330 1 C221.1 1 112.2 1 0 1 C0 0.67 0 0.34 0 0 Z " fill="#8E9EA5" transform="translate(107,337)"/>
<path d="M0 0 C10.23 0 20.46 0 31 0 C30.67 6.27 30.34 12.54 30 19 C39.9 19 49.8 19 60 19 C60 19.33 60 19.66 60 20 C54.46 20.02 48.93 20.04 43.39 20.05 C41.51 20.06 39.62 20.07 37.74 20.08 C35.03 20.09 32.33 20.09 29.63 20.1 C29.2 20.1 29.2 20.1 27.06 20.11 C25.04 20.11 23.02 20.06 21 20 C20.67 19.67 20.34 19.34 20 19 C20 16.03 20 13.06 20 10 C13.4 10 6.8 10 0 10 C0 6.7 0 3.4 0 0 Z " fill="#516F7A" transform="translate(397,248)"/>
<path d="M0 0 C3.3 0 6.6 0 10 0 C10 13.2 10 26.4 10 40 C-3.2 40 -16.4 40 -30 40 C-30 39.67 -30 39.34 -30 39 C-20.1 39 -10.2 39 0 39 C0 26.13 0 13.26 0 0 Z " fill="#959EA6" transform="translate(427,108)"/>
<path d="M0 0 C9.9 0 19.8 0 30 0 C30 3.3 30 6.6 30 10 C26.7 10 23.4 10 20 10 C20 7.03 20 4.06 20 1 C16.7 1 13.4 1 10 1 C10 10.57 10 20.14 10 30 C6.7 30 3.4 30 0 30 C0 20.1 0 10.2 0 0 Z " fill="#A3B1B3" transform="translate(377,197)"/>
<path d="M0 0 C3.3 0 6.6 0 10 0 C10 12.87 10 25.74 10 39 C13.3 39 16.6 39 20 39 C20 39.33 20 39.66 20 40 C13.4 40 6.8 40 0 40 C0 26.8 0 13.6 0 0 Z " fill="#65757C" transform="translate(447,118)"/>
<path d="M0 0 C3.3 0 6.6 0 10 0 C10 13.2 10 26.4 10 40 C6.7 40 3.4 40 0 40 C0 26.8 0 13.6 0 0 Z " fill="#717D84" transform="translate(157,107)"/>
<path d="M0 0 C3.3 0 6.6 0 10 0 C10 3.3 10 6.6 10 10 C16.6 10 23.2 10 30 10 C30 13.3 30 16.6 30 20 C22.88 20.92 16.48 20.91 9.38 20.06 C6.28 19.71 3.19 19.36 0 19 C0 12.73 0 6.46 0 0 Z " fill="#617683" transform="translate(47,488)"/>
<path d="M0 0 C3.3 0 6.6 0 10 0 C10 12.87 10 25.74 10 39 C6.7 39 3.4 39 0 39 C0 26.13 0 13.26 0 0 Z " fill="#657179" transform="translate(517,378)"/>
<path d="M0 0 C6.93 0 13.86 0 21 0 C20.67 6.27 20.34 12.54 20 19 C13.4 19 6.8 19 0 19 C0 12.73 0 6.46 0 0 Z " fill="#6F838C" transform="translate(107,248)"/>
<path d="M0 0 C6.6 0 13.2 0 20 0 C20 6.27 20 12.54 20 19 C13.4 19 6.8 19 0 19 C0 12.73 0 6.46 0 0 Z " fill="#CAD3D7" transform="translate(427,168)"/>
<path d="M0 0 C82.5 0 165 0 250 0 C250 0.33 250 0.66 250 1 C170.8 1 91.6 1 10 1 C10 4.3 10 7.6 10 11 C0.1 11 -9.8 11 -20 11 C-20 10.67 -20 10.34 -20 10 C-13.4 10 -6.8 10 0 10 C0 6.7 0 3.4 0 0 Z " fill="#87989F" transform="translate(77,217)"/>
<path d="M0 0 C13.2 0 26.4 0 40 0 C40 2.97 40 5.94 40 9 C26.8 9 13.6 9 0 9 C0 6.03 0 3.06 0 0 Z " fill="#566D7A" transform="translate(137,328)"/>
<path d="M0 0 C75.9 0 151.8 0 230 0 C230 0.33 230 0.66 230 1 C157.4 1 84.8 1 10 1 C10 4.3 10 7.6 10 11 C-3.2 11 -16.4 11 -30 11 C-30 10.67 -30 10.34 -30 10 C-20.1 10 -10.2 10 0 10 C0 6.7 0 3.4 0 0 Z " fill="#7B8E94" transform="translate(97,197)"/>
<path d="M0 0 C2.97 0 5.94 0 9 0 C9 10.23 9 20.46 9 31 C2.4 31 -4.2 31 -11 31 C-11 30.67 -11 30.34 -11 30 C-7.7 30 -4.4 30 -1 30 C-1.01 29.13 -1.01 28.25 -1.02 27.35 C-1.03 24.12 -1.05 20.89 -1.05 17.66 C-1.06 16.27 -1.07 14.87 -1.08 13.47 C-1.09 11.46 -1.09 9.45 -1.1 7.44 C-1.1 6.84 -1.1 6.84 -1.11 3.78 C-1 1 -1 1 0 0 Z " fill="#54666C" transform="translate(408,177)"/>
<path d="M0 0 C3.3 0 6.6 0 10 0 C10 2.97 10 5.94 10 9 C39.7 9 69.4 9 100 9 C100 9.33 100 9.66 100 10 C73.6 10 47.2 10 20 10 C20 13.3 20 16.6 20 20 C13.4 20 6.8 20 0 20 C0 19.67 0 19.34 0 19 C3.3 19 6.6 19 10 19 C10 16.03 10 13.06 10 10 C3.4 10 -3.2 10 -10 10 C-10 9.67 -10 9.34 -10 9 C-6.7 9 -3.4 9 0 9 C0 6.03 0 3.06 0 0 Z " fill="#97A4AA" transform="translate(217,28)"/>
<path d="M0 0 C3.3 0 6.6 0 10 0 C10 3.3 10 6.6 10 10 C13.3 10 16.6 10 20 10 C20 13.3 20 16.6 20 20 C13.4 20 6.8 20 0 20 C0 13.4 0 6.8 0 0 Z " fill="#9CABB2" transform="translate(357,77)"/>
<path d="M0 0 C3.3 0 6.6 0 10 0 C10 9.57 10 19.14 10 29 C6.7 29 3.4 29 0 29 C0 19.43 0 9.86 0 0 Z " fill="#6F8287" transform="translate(487,308)"/>
<path d="M0 0 C6.6 0 13.2 0 20 0 C20 2.97 20 5.94 20 9 C16.7 9 13.4 9 10 9 C10 12.3 10 15.6 10 19 C6.7 19 3.4 19 0 19 C0 12.73 0 6.46 0 0 Z " fill="#345062" transform="translate(207,38)"/>
<path d="M0 0 C9.9 0 19.8 0 30 0 C30 2.97 30 5.94 30 9 C20.1 9 10.2 9 0 9 C0 6.03 0 3.06 0 0 Z " fill="#7A8990" transform="translate(167,568)"/>
<path d="M0 0 C26.4 0 52.8 0 80 0 C80 0.33 80 0.66 80 1 C70.1 1 60.2 1 50 1 C50 3.97 50 6.94 50 10 C43.4 10 36.8 10 30 10 C30 7.03 30 4.06 30 1 C20.1 1 10.2 1 0 1 C0 0.67 0 0.34 0 0 Z " fill="#4B616C" transform="translate(87,547)"/>
<path d="M0 0 C6.6 0 13.2 0 20 0 C20 3.3 20 6.6 20 10 C23.3 10 26.6 10 30 10 C30 13.3 30 16.6 30 20 C33.3 20 36.6 20 40 20 C40 20.33 40 20.66 40 21 C33.4 21 26.8 21 20 21 C20 17.7 20 14.4 20 11 C16.7 11 13.4 11 10 11 C10 7.7 10 4.4 10 1 C6.7 1 3.4 1 0 1 C0 0.67 0 0.34 0 0 Z " fill="#9AA1A8" transform="translate(337,37)"/>
<path d="M0 0 C3.3 0 6.6 0 10 0 C10 3.3 10 6.6 10 10 C13.3 10 16.6 10 20 10 C20 10.33 20 10.66 20 11 C16.7 11 13.4 11 10 11 C10 14.3 10 17.6 10 21 C6.7 21 3.4 21 0 21 C0 17.7 0 14.4 0 11 C-3.3 11 -6.6 11 -10 11 C-10 10.67 -10 10.34 -10 10 C-6.7 10 -3.4 10 0 10 C0 6.7 0 3.4 0 0 Z " fill="#49626F" transform="translate(197,47)"/>
<path d="M0 0 C3.3 0 6.6 0 10 0 C10 3.3 10 6.6 10 10 C3.4 10 -3.2 10 -10 10 C-10 12.97 -10 15.94 -10 19 C-13.3 19 -16.6 19 -20 19 C-20 15.7 -20 12.4 -20 9 C-13.4 9 -6.8 9 0 9 C0 6.03 0 3.06 0 0 Z " fill="#546569" transform="translate(457,448)"/>
<path d="M0 0 C3.3 0 6.6 0 10 0 C10 6.6 10 13.2 10 20 C6.7 20 3.4 20 0 20 C0 13.4 0 6.8 0 0 Z " fill="#C3C8CB" transform="translate(27,407)"/>
<path d="M0 0 C3.3 0 6.6 0 10 0 C10 6.6 10 13.2 10 20 C6.7 20 3.4 20 0 20 C0 13.4 0 6.8 0 0 Z " fill="#51646D" transform="translate(487,337)"/>
<path d="M0 0 C3.3 0 6.6 0 10 0 C10 6.6 10 13.2 10 20 C6.7 20 3.4 20 0 20 C0 13.4 0 6.8 0 0 Z " fill="#62767A" transform="translate(467,177)"/>
<path d="M0 0 C6.6 0 13.2 0 20 0 C20 3.3 20 6.6 20 10 C13.4 10 6.8 10 0 10 C0 6.7 0 3.4 0 0 Z " fill="#62747B" transform="translate(267,27)"/>
<path d="M0 0 C3.3 0 6.6 0 10 0 C10 6.27 10 12.54 10 19 C6.7 19 3.4 19 0 19 C0 12.73 0 6.46 0 0 Z " fill="#99AAB7" transform="translate(47,488)"/>
<path d="M0 0 C3.3 0 6.6 0 10 0 C10 6.27 10 12.54 10 19 C6.7 19 3.4 19 0 19 C0 12.73 0 6.46 0 0 Z " fill="#A4AEB5" transform="translate(27,268)"/>
<path d="M0 0 C3.3 0 6.6 0 10 0 C10 6.27 10 12.54 10 19 C6.7 19 3.4 19 0 19 C0 12.73 0 6.46 0 0 Z " fill="#556E7A" transform="translate(107,248)"/>
<path d="M0 0 C3.3 0 6.6 0 10 0 C10 6.27 10 12.54 10 19 C6.7 19 3.4 19 0 19 C0 12.73 0 6.46 0 0 Z " fill="#727B83" transform="translate(377,208)"/>
<path d="M0 0 C23.1 0 46.2 0 70 0 C70 3.3 70 6.6 70 10 C76.6 10 83.2 10 90 10 C90 10.33 90 10.66 90 11 C80.1 11 70.2 11 60 11 C60 7.7 60 4.4 60 1 C40.2 1 20.4 1 0 1 C0 0.67 0 0.34 0 0 Z " fill="#8E9BA1" transform="translate(247,17)"/>
<path d="M0 0 C6.93 0 13.86 0 21 0 C20.67 2.97 20.34 5.94 20 9 C13.4 9 6.8 9 0 9 C0 6.03 0 3.06 0 0 Z " fill="#364F5B" transform="translate(417,548)"/>
<path d="M0 0 C6.6 0 13.2 0 20 0 C20 2.97 20 5.94 20 9 C13.4 9 6.8 9 0 9 C0 6.03 0 3.06 0 0 Z " fill="#69767D" transform="translate(147,568)"/>
<path d="M0 0 C6.6 0 13.2 0 20 0 C20 2.97 20 5.94 20 9 C13.4 9 6.8 9 0 9 C0 6.03 0 3.06 0 0 Z " fill="#86969E" transform="translate(127,568)"/>
<path d="M0 0 C6.6 0 13.2 0 20 0 C20 2.97 20 5.94 20 9 C13.4 9 6.8 9 0 9 C0 6.03 0 3.06 0 0 Z " fill="#99A5A8" transform="translate(417,488)"/>
<path d="M0 0 C6.6 0 13.2 0 20 0 C20 2.97 20 5.94 20 9 C13.4 9 6.8 9 0 9 C0 6.03 0 3.06 0 0 Z " fill="#9DA8AC" transform="translate(387,488)"/>
<path d="M0 0 C6.6 0 13.2 0 20 0 C20 2.97 20 5.94 20 9 C13.4 9 6.8 9 0 9 C0 6.03 0 3.06 0 0 Z " fill="#A0AAB1" transform="translate(357,488)"/>
<path d="M0 0 C6.6 0 13.2 0 20 0 C20 2.97 20 5.94 20 9 C13.4 9 6.8 9 0 9 C0 6.03 0 3.06 0 0 Z " fill="#A4AEB6" transform="translate(327,488)"/>
<path d="M0 0 C6.6 0 13.2 0 20 0 C20 2.97 20 5.94 20 9 C13.4 9 6.8 9 0 9 C0 6.03 0 3.06 0 0 Z " fill="#9CA8AF" transform="translate(297,488)"/>
<path d="M0 0 C6.6 0 13.2 0 20 0 C20 2.97 20 5.94 20 9 C13.4 9 6.8 9 0 9 C0 6.03 0 3.06 0 0 Z " fill="#9EA9B2" transform="translate(267,488)"/>
<path d="M0 0 C6.6 0 13.2 0 20 0 C20 2.97 20 5.94 20 9 C13.4 9 6.8 9 0 9 C0 6.03 0 3.06 0 0 Z " fill="#A3AEB3" transform="translate(237,488)"/>
<path d="M0 0 C6.6 0 13.2 0 20 0 C20 2.97 20 5.94 20 9 C13.4 9 6.8 9 0 9 C0 6.03 0 3.06 0 0 Z " fill="#A9B2B9" transform="translate(207,488)"/>
<path d="M0 0 C6.6 0 13.2 0 20 0 C20 2.97 20 5.94 20 9 C13.4 9 6.8 9 0 9 C0 6.03 0 3.06 0 0 Z " fill="#A6B0B8" transform="translate(177,488)"/>
<path d="M0 0 C6.6 0 13.2 0 20 0 C20 2.97 20 5.94 20 9 C13.4 9 6.8 9 0 9 C0 6.03 0 3.06 0 0 Z " fill="#ABB8C0" transform="translate(147,488)"/>
<path d="M0 0 C6.6 0 13.2 0 20 0 C20 2.97 20 5.94 20 9 C13.4 9 6.8 9 0 9 C0 6.03 0 3.06 0 0 Z " fill="#F2F6F8" transform="translate(177,128)"/>
<path d="M0 0 C23.1 0 46.2 0 70 0 C70 3.3 70 6.6 70 10 C66.7 10 63.4 10 60 10 C60 7.03 60 4.06 60 1 C40.2 1 20.4 1 0 1 C0 0.67 0 0.34 0 0 Z " fill="#788C98" transform="translate(407,217)"/>
<path d="M0 0 C9.9 0 19.8 0 30 0 C30 3.3 30 6.6 30 10 C39.9 10 49.8 10 60 10 C60 10.33 60 10.66 60 11 C54.46 11.02 48.93 11.04 43.39 11.05 C41.51 11.06 39.62 11.07 37.74 11.08 C35.03 11.09 32.33 11.09 29.63 11.1 C29.2 11.1 29.2 11.1 27.06 11.11 C25.04 11.11 23.02 11.06 21 11 C20.67 10.67 20.34 10.34 20 10 C20 7.03 20 4.06 20 1 C13.4 1 6.8 1 0 1 C0 0.67 0 0.34 0 0 Z " fill="#677F8B" transform="translate(397,257)"/>
<path d="M0 0 C16.5 0 33 0 50 0 C50 0.33 50 0.66 50 1 C43.4 1 36.8 1 30 1 C30 4.3 30 7.6 30 11 C26.7 11 23.4 11 20 11 C20 7.7 20 4.4 20 1 C13.4 1 6.8 1 0 1 C0 0.67 0 0.34 0 0 Z " fill="#667785" transform="translate(327,237)"/>
</svg>
